<?xml version="1.0" encoding="UTF-8"?>
<svg id="Layer_1" data-name="Layer 1" xmlns="http://www.w3.org/2000/svg" viewBox="0 0 1920 650">
  <defs>
    <style>
      .cls-1 {
        fill: #2bc000;
      }

      .cls-2 {
        fill: #196896;
      }
    </style>
  </defs>
  <g>
    <path class="cls-1" d="M292.75,402.39c12.67-5.05,23.64-12.88,32.42-21.79,19.37-19.76,30.19-48.19,30.19-79.14,0-52.3-33.15-85.29-84.75-85.29-30.09,0-59.31,11.19-80.09,32.89-19.27,20.06-30.53,47.74-30.53,78.5,0,52.15,33.59,82.02,72.18,84.89,2.04.2,5.34.99,15.63,5.6,19.71,9.46,50.09,20.21,77.85,27.69l12.86-33.98c-17.09-2.58-34.27-6.44-45.77-8.72v-.64ZM251.2,378.46c-31.5,0-46.5-21.4-46.5-52.75,0-21.59,8.45-43.39,22.52-57.75,10.19-10.4,23.35-16.89,38.64-16.89,34.32,0,44.99,26.55,44.99,52.45,0,22.58-8.01,44.28-21.7,58.44-10.05,10.2-22.96,16.49-37.96,16.49Z"/>
    <path class="cls-1" d="M469.48,271.68l-10.97,58.74c-5.63,30.11-21.36,48.34-36.4,48.34-11.5,0-15.39-8.07-15.39-17.63,0-4.61.83-11.34,1.84-16.94l13.4-72.51h-41.6l-14.22,76.32c-1.75,9.21-2.57,17.24-2.57,24.42,0,28.78,14.95,40.91,37.86,40.91,17.43,0,35.24-8.12,50.38-27.19h.58l-2.96,23.82h37.08c1.75-12.13,3.88-27.14,7.38-45.07l17.18-93.21h-41.6Z"/>
    <path class="cls-1" d="M570.19,210.72c-12.28,0-24.07,8.57-24.07,23.48,0,12.58,9.27,20.31,20.53,20.31,13.44,0,24.71-8.62,24.75-23.23-.05-12.98-9.37-20.55-21.21-20.55ZM540.63,271.68l-25.68,138.28h41.6l25.68-138.28h-41.6Z"/>
    <path class="cls-1" d="M682.12,301.6c9.66,0,15.97,1.73,21.11,4.06l10.24-31.94c-6.99-2.82-18.4-5.45-30.92-5.45-54.61,0-93.63,37.05-93.63,85.93,0,39.37,27.38,59.14,61.89,59.14,17.81,0,33.05-3.42,43.25-8.52l-1.26-31.94c-7.62,3.52-16.89,6.64-30.14,6.64-15.97,0-29.66-9.31-29.66-29.67,0-24.61,18.06-48.24,49.12-48.24Z"/>
    <path class="cls-1" d="M867.88,271.68h-53.2l-37.96,42.49c-4.08,4.75-8.59,10.05-13.01,15.3h-.58l22.76-121.79h-41.6l-37.52,202.27h41.6l8.11-43.48,17.18-15.55,27.72,59.04h47.52l-43.44-82.66,62.42-55.62Z"/>
  </g>
  <path class="cls-2" d="M1035.72,267.52c0-19.41-10-31.9-23.44-39.13-14.08-7.87-33.39-10.25-51.6-10.25-20.68,0-41.5,1.83-54.22,5.25l-34.95,186.57h41.4l13.93-74.69h14.27c17.18,0,25.97,6.88,28.25,29.96,2.38,24.22,4.9,39.72,6.55,44.72h43.05c-3.74-8.22-5.48-33.43-8.4-54.93-2.28-15.8-7.28-28.87-18.74-33.98l.19-.99c24.8-8.27,43.68-24.22,43.68-52.55ZM952.04,303.78h-19.27l9.51-50.72c3.69-.79,8.93-1.49,17.62-1.49,16.89,0,32.37,5.5,32.37,22.68,0,18.08-17.23,29.52-40.24,29.52Z"/>
  <path class="cls-2" d="M1172.4,311.01c0-27.98-22.57-42.74-50.92-42.74-50.82,0-83.44,41.8-83.44,84.39,0,38.33,22.23,60.67,62.71,60.67,15,0,37.47-2.87,54.46-11.99l-3.01-30.26c-11.55,5.79-25.87,9.31-41.5,9.31-12.38,0-22.33-3.37-28.25-10.75-2.77-3.66-4.51-9.61-4.71-13.57,59.75,1.54,94.65-10.9,94.65-45.07ZM1116.44,298.53c9.8,0,16.26,4.9,16.26,11.39,0,12.08-15.68,15.5-50.87,15.3,2.28-10.35,13.45-26.7,34.61-26.7Z"/>
  <path class="cls-2" d="M1274.96,239.49c5.29,0,9.8.89,13.49,2.48l6.55-33.88c-4.32-2.23-11.79-3.81-21.45-3.81-13.2,0-28.3,3.27-40.09,13.37-14.27,11.89-20.77,30.06-23.59,46.41l-1.31,7.63h-17.28l-6.16,32.99h17.28l-19.32,105.29h41.4l19.32-105.29h26.65l6.12-32.99h-26.84l1.36-7.13c2.62-14.31,10.73-25.06,23.88-25.06Z"/>
  <path class="cls-2" d="M1382.72,271.68l-10.97,58.74c-5.63,30.11-21.36,48.34-36.4,48.34-11.5,0-15.39-8.07-15.39-17.63,0-4.61.83-11.34,1.84-16.94l13.4-72.51h-41.6l-14.22,76.32c-1.75,9.21-2.57,17.24-2.57,24.42,0,28.78,14.95,40.91,37.86,40.91,17.42,0,35.24-8.12,50.38-27.19h.58l-2.96,23.82h37.08c1.75-12.13,3.88-27.14,7.38-45.07l17.18-93.21h-41.6Z"/>
  <path class="cls-2" d="M1539.88,268.27c-19.12,0-37.18,8.37-50.96,28.03h-.58l2.91-24.61h-37.08c-1.8,12.13-3.88,27.09-7.43,45.02l-17.13,93.26h41.6l10.63-57.55c5.82-31.9,22.38-50.07,36.99-50.07,11.75,0,15.24,7.68,15.24,18.47,0,5-.68,10.95-1.5,15.8l-13.54,73.35h41.6l14.8-79.19c.92-5.65,2.04-16.59,2.04-22.19,0-26.45-14.51-40.31-37.57-40.31Z"/>
  <path class="cls-2" d="M1718.6,207.7l-12.18,63.94c-6.65-2.43-14.76-3.37-20.48-3.37-54.36,0-91.15,41.95-91.15,89.94,0,36.2,21.5,55.12,45.67,55.12,17.23,0,35.14-6.74,48.29-26.5h.53l-2.04,23.13h39.17c.49-17.04,2.86-37.84,6.31-56.41l27.28-145.86h-41.4ZM1694.43,336.02c-5.63,30.41-22.04,43.34-34.75,43.34s-21.02-9.91-21.02-27.98c0-27.78,18.4-50.62,43.59-50.62,7.57,0,14.46,2.38,18.25,5.25l-6.07,30.01Z"/>
</svg>