<?xml version="1.0" encoding="UTF-8"?>
<svg id="Layer_1" data-name="Layer 1" xmlns="http://www.w3.org/2000/svg" viewBox="0 0 1920 1920">
  <defs>
    <style>
      .cls-1 {
        fill: #2bc000;
      }

      .cls-2 {
        fill: #196896;
      }
    </style>
  </defs>
  <path class="cls-2" d="M1253.91,714.6l-166.07-3.81,57.62-79.22c-50.42-25.63-107.61-40.04-167.98-40.04-205.9,0-373.03,167.13-373.03,373.24s167.13,373.03,373.03,373.03,373.24-167.13,373.24-373.03c0-96.38-36.65-184.29-96.81-250.17ZM1012.85,1188.03v77.95h-80.71v-70.96c-45.97-2.33-90.03-14.4-115.45-27.11l21.39-98.71c30.29,15.04,69.69,28.6,114.81,28.6,36.01,0,59.31-12.29,59.31-35.38s-20.55-38.98-70.12-57.83c-75.62-29.87-122.65-67.36-122.65-136.42,0-63.55,41.94-115.02,119.05-133.45v-71.17h80.71v64.18c44.48,1.48,76.68,11.23,101.04,22.03l-22.03,95.32c-19.07-8.69-49.36-23.3-97.65-23.3-40.46,0-54.65,15.46-54.65,33.89s19.28,31.99,78.16,56.35c84.94,33.47,114.39,76.05,114.39,138.75,0,67.57-45.33,121.38-125.61,137.27Z"/>
  <path class="cls-1" d="M1585,1175.32c-89.6,258.43-333.63,432.13-607.31,432.13-354.39,0-642.69-288.3-642.69-642.69S623.3,322.08,977.69,322.08c126.67,0,248.9,36.65,354.18,106.34l84.73-115.87,129.85,377.9-399.51-8.9,72.23-98.92c-72.23-45.75-155.48-69.9-241.49-69.9-249.32,0-452.04,202.72-452.04,452.04s202.72,452.04,452.04,452.04c192.55,0,364.13-122.23,427.26-303.97l180.05,62.49Z"/>
</svg>