<?xml version="1.0" encoding="UTF-8"?>
<svg id="Layer_1" data-name="Layer 1" xmlns="http://www.w3.org/2000/svg" viewBox="0 0 1920 650">
  <defs>
    <style>
      .cls-1 {
        fill: #fff;
      }
    </style>
  </defs>
  <g>
    <path class="cls-1" d="M542.28,335.31c10.51-4.19,19.62-10.69,26.91-18.09,16.07-16.4,25.06-39.99,25.06-65.68,0-43.41-27.51-70.78-70.33-70.78-24.98,0-49.23,9.29-66.47,27.29-15.99,16.65-25.34,39.62-25.34,65.15,0,43.28,27.88,68.07,59.9,70.45,1.69.16,4.43.82,12.97,4.64,16.35,7.85,41.57,16.77,64.61,22.98l10.68-28.2c-14.18-2.14-28.44-5.34-37.99-7.23v-.53ZM507.8,315.45c-26.14,0-38.59-17.76-38.59-43.78,0-17.92,7.01-36.01,18.69-47.93,8.46-8.63,19.38-14.02,32.07-14.02,28.48,0,37.34,22.03,37.34,43.53,0,18.74-6.65,36.75-18.01,48.5-8.34,8.47-19.05,13.69-31.5,13.69Z"/>
    <path class="cls-1" d="M688.95,226.83l-9.1,48.75c-4.67,24.99-17.72,40.12-30.21,40.12-9.55,0-12.77-6.7-12.77-14.63,0-3.82.68-9.41,1.53-14.06l11.12-60.18h-34.52l-11.8,63.34c-1.45,7.65-2.14,14.3-2.14,20.26,0,23.88,12.41,33.95,31.42,33.95,14.46,0,29.25-6.74,41.81-22.57h.48l-2.46,19.77h30.78c1.45-10.07,3.22-22.53,6.12-37.4l14.26-77.36h-34.52Z"/>
    <path class="cls-1" d="M772.54,176.23c-10.19,0-19.98,7.11-19.98,19.48,0,10.44,7.69,16.85,17.04,16.85,11.16,0,20.5-7.15,20.54-19.28-.04-10.77-7.77-17.06-17.6-17.06ZM748.01,226.83l-21.31,114.76h34.52l21.31-114.76h-34.52Z"/>
    <path class="cls-1" d="M865.43,251.66c8.02,0,13.25,1.44,17.52,3.37l8.5-26.51c-5.8-2.34-15.27-4.52-25.66-4.52-45.32,0-77.71,30.75-77.71,71.32,0,32.68,22.72,49.08,51.36,49.08,14.78,0,27.43-2.84,35.89-7.07l-1.05-26.51c-6.32,2.92-14.02,5.51-25.02,5.51-13.25,0-24.61-7.73-24.61-24.62,0-20.43,14.99-40.04,40.77-40.04Z"/>
    <path class="cls-1" d="M1019.6,226.83h-44.15l-31.5,35.27c-3.38,3.95-7.13,8.34-10.8,12.7h-.48l18.89-101.07h-34.52l-31.14,167.87h34.52l6.73-36.09,14.26-12.91,23,49h39.44l-36.05-68.6,51.8-46.16Z"/>
  </g>
  <g>
    <path class="cls-1" d="M452.77,421.66c6.86-6.04,16.11-9.37,25.64-9.37,8.82,0,15.64,1.84,18.98,3.65l5.02-14.15c-2.78-1.84-10.9-4.47-21.95-4.47-14.47,0-26.97,4-37.4,11.92-14.66,10.82-23.68,28.58-23.68,49.59,0,26.15,16.78,42.34,42.89,42.34,11.76,0,20.86-2.12,26.35-4.55l-1.73-14.15c-5.25,2.43-12.86,3.76-20.19,3.76-19.8,0-28.54-12.58-28.54-29.52,0-14.62,5.72-27.29,14.62-35.05Z"/>
    <path class="cls-1" d="M524.3,393.51l-20.27,106.09h17.41l20.27-106.09h-17.41Z"/>
    <path class="cls-1" d="M568.76,396.56c-5.65,0-10.43,4.31-10.47,10.47-.04,5.49,3.65,9.25,8.94,9.25,5.92,0,10.7-4,10.78-10.39,0-5.61-3.76-9.33-9.25-9.33ZM555.59,426.83l-13.88,72.76h17.41l13.84-72.76h-17.37Z"/>
    <path class="cls-1" d="M624.94,439.38c4.82,0,8.23,1.02,10.94,2.2l4.51-13.49c-2.78-1.29-8.47-2.82-14.9-2.82-27.01,0-46.18,21.44-46.18,46.81,0,17.33,11.13,29.09,29.4,29.09,9.21,0,16.66-2.04,20.86-4.12l-.63-13.45c-3.69,1.65-8.74,3.49-15.45,3.49-9.72,0-16-6.16-16-17.05,0-15.17,10.55-30.66,27.44-30.66Z"/>
    <path class="cls-1" d="M718.13,426.83h-21.48l-21.76,23.68c-2,2.31-4.43,5.14-6.66,7.8h-.31l12.35-64.81h-17.29l-20.15,106.09h17.29l4.82-25.33,8.55-7.92,14.9,33.25h19.33l-20.9-42.81,31.32-29.95Z"/>
    <path class="cls-1" d="M726.01,477.44c-7.17,0-12.23,5.88-12.23,12.9,0,6.16,4.12,10.78,10.43,10.78,7.21,0,12.39-5.37,12.39-12.62,0-6.47-4.27-11.06-10.59-11.06Z"/>
    <path class="cls-1" d="M850.57,422.99c0-8.23-3.84-14.35-9.49-18.31-6.27-4.67-15.6-6.47-25.37-6.47-8.9,0-18.27.82-24.74,2.35l-18.86,99.03h17.25l7.88-41.6h8.55c9.17,0,13.8,4.67,14.66,17.6.82,12.04,1.88,21.56,2.59,23.99h17.96c-1.57-4.12-2.31-15.64-3.53-28.19-.86-9.64-3.8-16.7-10.27-19.21l.04-.43c12.82-3.92,23.33-14,23.33-28.78ZM809.68,444.83h-9.84l6.04-31.95c2.04-.55,4.9-.9,9.33-.9,9.84,0,17.21,4.19,17.21,13.49,0,10.86-9.25,19.37-22.74,19.37Z"/>
    <path class="cls-1" d="M920.94,445.61c0-12.11-9.21-20.39-23.56-20.39-24.97,0-41.13,23.84-41.13,45.87,0,17.68,9.61,30.07,29.76,30.07,8.86,0,18.66-2,25.8-5.72l-1.69-12.74c-5.18,2.67-11.84,4.78-20.03,4.78-6.78,0-12.07-2.47-14.94-7.45-1.57-2.9-2.16-7.76-1.92-10.31,28.11.63,47.71-5.33,47.71-24.11ZM895.14,438.2c5.61,0,9.29,2.9,9.29,7.57,0,8.74-11.49,11.21-29.44,10.98,2.16-8.78,9.37-18.54,20.15-18.54Z"/>
    <path class="cls-1" d="M976.97,406.29c2.82,0,5.18.47,7.1,1.29l3.25-13.84c-2.04-1.02-5.65-1.88-10.74-1.88-6.74,0-13.88,2.08-19.17,6.7-6.94,6.04-10.43,15.21-12.08,24.5l-.71,3.76h-9.57l-2.55,13.41h9.53l-11.21,59.36h17.33l11.21-59.36h15.09l2.55-13.41h-15.17l.67-3.53c1.69-9.37,6.19-17.02,14.47-17.02Z"/>
    <path class="cls-1" d="M1037.08,428.01l-6.7,35.36c-2.86,15.13-12.19,24.7-20.27,24.7-6.82,0-9.25-4.35-9.25-10.31,0-2.86.47-6.39,1.14-10.08l7.53-39.68h-17.37l-7.8,40.85c-.94,4.94-1.41,9.13-1.41,12.9,0,14.98,8.27,20.66,18.9,20.66,9.13,0,18.31-4.9,25.33-14.35l.31.04-1.61,12.66h15.49c.86-6.31,1.92-13.84,3.61-22.54l9.53-50.22h-17.41Z"/>
    <path class="cls-1" d="M1109.7,425.22c-10.11,0-19.45,4.9-26.15,14.7h-.27l1.57-13.09h-15.45c-.94,6.31-2,13.88-3.72,22.58l-9.45,50.18h17.41l6.27-33.68c3.14-16.94,13.29-26.54,21.13-26.54,6.9,0,9.1,4.43,9.1,10.51,0,2.86-.39,6-.86,8.66l-7.76,41.05h17.41l8.04-42.34c.67-3.69,1.29-8.74,1.29-12,0-13.8-8.12-20.03-18.54-20.03Z"/>
    <path class="cls-1" d="M1200.96,393.51l-6.43,33.79c-3.14-1.37-7.57-2.08-11.25-2.08-26.74,0-45.4,23.44-45.4,49.01,0,16.47,9.06,27.01,22.15,27.01,9.41,0,18.43-4.63,24.9-14.58h.31l-1.45,12.94h15.96c.39-7.88,1.65-17.41,3.25-25.91l15.29-80.17h-17.33ZM1187.67,463.6c-2.94,15.02-12.31,23.52-20.03,23.52-8.19,0-11.64-6.82-11.64-15.6,0-16.35,11.06-32.85,25.95-32.85,4.27,0,7.92,1.25,10,2.78l-4.27,22.15Z"/>
    <path class="cls-1" d="M1224.7,477.44c-7.21,0-12.23,5.88-12.23,12.9,0,6.16,4.12,10.78,10.43,10.78,7.21,0,12.35-5.37,12.35-12.62,0-6.47-4.23-11.06-10.55-11.06Z"/>
    <path class="cls-1" d="M1348.7,410.21c-8.04-7.92-20.66-12-36.89-12-9.29,0-18.31.67-26.54,2.12l-18.7,98.33c5.68.86,15.56,1.61,26.15,1.61,20.7,0,35.4-4.16,47.12-13.68,12.66-10.43,20.43-27.84,20.43-46.77-.04-13.84-4.63-23.37-11.57-29.6ZM1329.53,473.6c-7.41,8.08-18.31,12.43-31.91,12.43-3.76,0-7.65-.12-11.06-.59l13.84-72.37c2.82-.59,7.14-.82,11.21-.82,21.05,0,29.83,11.17,29.83,27.95,0,13.02-4.08,24.97-11.92,33.4Z"/>
    <path class="cls-1" d="M1408.57,424.8c-24.86,0-42.07,21.37-42.07,46.03,0,17.33,11.41,29.99,29.76,29.99,24.86,0,42.11-21.21,42.11-45.95,0-16.07-10.23-30.07-29.8-30.07ZM1398.69,487.37c-8.9,0-14.19-7.02-14.19-17.02,0-13.64,8.08-32.11,21.95-32.11,10.51,0,13.88,9.17,13.88,16.74,0,14.39-8.66,32.38-21.64,32.38Z"/>
    <path class="cls-1" d="M1498.08,425.22c-10.11,0-19.45,4.9-26.15,14.7h-.31l1.61-13.09h-15.45c-.94,6.31-2,13.88-3.72,22.58l-9.45,50.18h17.37l6.31-33.68c3.14-16.94,13.29-26.54,21.13-26.54,6.9,0,9.1,4.43,9.1,10.51,0,2.86-.39,6-.86,8.66l-7.76,41.05h17.41l8.04-42.34c.67-3.69,1.25-8.74,1.25-12,0-13.8-8.08-20.03-18.5-20.03Z"/>
    <path class="cls-1" d="M1593.38,445.61c-.04-12.11-9.21-20.39-23.56-20.39-25.01,0-41.17,23.84-41.17,45.87,0,17.68,9.64,30.07,29.76,30.07,8.86,0,18.66-2,25.8-5.72l-1.65-12.74c-5.21,2.67-11.88,4.78-20.07,4.78-6.78,0-12.04-2.47-14.9-7.45-1.57-2.9-2.2-7.76-1.96-10.31,28.15.63,47.75-5.33,47.75-24.11ZM1567.58,438.2c5.57,0,9.29,2.9,9.29,7.57,0,8.74-11.49,11.21-29.44,10.98,2.12-8.78,9.33-18.54,20.15-18.54Z"/>
    <path class="cls-1" d="M1609.08,477.44c-7.17,0-12.23,5.88-12.23,12.9,0,6.16,4.12,10.78,10.43,10.78,7.25,0,12.39-5.37,12.39-12.62,0-6.47-4.27-11.06-10.59-11.06Z"/>
  </g>
  <g>
    <path class="cls-1" d="M1158.9,223.38c0-16.11-8.3-26.47-19.46-32.47-11.68-6.54-27.71-8.51-42.82-8.51-17.16,0-34.44,1.52-45,4.36l-29,154.84h34.36l11.56-61.98h11.84c14.26,0,21.55,5.71,23.44,24.87,1.97,20.1,4.07,32.97,5.44,37.12h35.73c-3.1-6.82-4.55-27.75-6.97-45.58-1.89-13.11-6.04-23.96-15.55-28.2l.16-.82c20.58-6.86,36.25-20.1,36.25-43.61ZM1089.45,253.47h-15.99l7.9-42.09c3.06-.66,7.41-1.23,14.62-1.23,14.02,0,26.87,4.56,26.87,18.83,0,15-14.3,24.5-33.39,24.5Z"/>
    <path class="cls-1" d="M1272.33,259.47c0-23.22-18.73-35.47-42.26-35.47-42.18,0-69.25,34.69-69.25,70.04,0,31.81,18.45,50.35,52.05,50.35,12.45,0,31.1-2.38,45.2-9.95l-2.5-25.11c-9.59,4.81-21.47,7.73-34.44,7.73-10.27,0-18.53-2.8-23.44-8.92-2.3-3.04-3.75-7.97-3.91-11.26,49.59,1.27,78.55-9.04,78.55-37.4ZM1225.89,249.11c8.14,0,13.49,4.07,13.49,9.45,0,10.03-13.01,12.87-42.22,12.7,1.89-8.59,11.16-22.16,28.72-22.16Z"/>
    <path class="cls-1" d="M1357.45,200.12c4.39,0,8.14.74,11.2,2.06l5.44-28.11c-3.59-1.85-9.79-3.17-17.81-3.17-10.96,0-23.48,2.71-33.27,11.1-11.84,9.87-17.24,24.95-19.58,38.51l-1.09,6.33h-14.34l-5.12,27.38h14.34l-16.03,87.39h34.36l16.03-87.39h22.12l5.08-27.38h-22.28l1.13-5.92c2.18-11.88,8.9-20.8,19.82-20.8Z"/>
    <path class="cls-1" d="M1446.88,226.83l-9.1,48.75c-4.67,24.99-17.72,40.12-30.21,40.12-9.55,0-12.77-6.7-12.77-14.63,0-3.82.68-9.41,1.53-14.06l11.12-60.18h-34.52l-11.8,63.34c-1.45,7.65-2.13,14.3-2.13,20.26,0,23.88,12.41,33.95,31.42,33.95,14.46,0,29.25-6.74,41.81-22.57h.48l-2.46,19.77h30.78c1.45-10.07,3.22-22.53,6.12-37.4l14.26-77.36h-34.52Z"/>
    <path class="cls-1" d="M1577.32,224c-15.87,0-30.86,6.95-42.3,23.26h-.48l2.42-20.43h-30.78c-1.49,10.07-3.22,22.48-6.16,37.36l-14.22,77.4h34.52l8.82-47.76c4.83-26.47,18.57-41.56,30.7-41.56,9.75,0,12.65,6.37,12.65,15.33,0,4.15-.56,9.08-1.25,13.11l-11.24,60.87h34.52l12.29-65.73c.77-4.69,1.69-13.77,1.69-18.41,0-21.95-12.04-33.46-31.18-33.46Z"/>
    <path class="cls-1" d="M1725.64,173.73l-10.11,53.07c-5.52-2.01-12.25-2.8-17-2.8-45.12,0-75.65,34.81-75.65,74.64,0,30.05,17.85,45.75,37.91,45.75,14.3,0,29.16-5.59,40.08-21.99h.44l-1.69,19.2h32.51c.4-14.14,2.38-31.4,5.24-46.82l22.64-121.05h-34.36ZM1705.58,280.23c-4.67,25.24-18.29,35.97-28.84,35.97s-17.44-8.22-17.44-23.22c0-23.06,15.27-42.01,36.17-42.01,6.28,0,12,1.97,15.15,4.36l-5.04,24.91Z"/>
  </g>
  <path class="cls-1" d="M289.19,314.43v14.86h-15.38v-13.52c-8.76-.44-17.16-2.75-22-5.17l4.08-18.81c5.77,2.87,13.28,5.45,21.88,5.45,6.86,0,11.3-2.34,11.3-6.74s-3.92-7.43-13.36-11.02c-14.41-5.69-23.37-12.84-23.37-26,0-12.11,7.99-21.92,22.69-25.43v-13.56h15.38v12.23c8.48.28,14.61,2.14,19.26,4.2l-4.2,18.17c-3.63-1.66-9.41-4.44-18.61-4.44-7.71,0-10.42,2.95-10.42,6.46s3.67,6.1,14.9,10.74c16.19,6.38,21.8,14.49,21.8,26.44,0,12.88-8.64,23.13-23.94,26.16Z"/>
  <path class="cls-1" d="M398.23,312.01c-17.08,49.25-63.58,82.36-115.74,82.36-67.54,0-122.49-54.95-122.49-122.49s54.95-122.49,122.49-122.49c24.14,0,47.44,6.98,67.5,20.27l16.15-22.08,24.75,72.02-76.14-1.7,13.77-18.85c-13.77-8.72-29.63-13.32-46.02-13.32-47.52,0-86.15,38.64-86.15,86.15s38.63,86.15,86.15,86.15c36.7,0,69.4-23.29,81.43-57.93l34.32,11.91Z"/>
</svg>